<svg width="27" height="30" viewBox="0 0 27 30" fill="none" xmlns="http://www.w3.org/2000/svg">
<g filter="url(#filter0_ii_119_815)">
<path d="M1.40236 1.29173C1.08441 1.63053 0.896484 2.15633 0.896484 2.83723V27.1648C0.896484 27.8468 1.08441 28.3715 1.40236 28.7103L1.48321 28.7895L15.0195 15.1616V15.001V14.8404L1.48321 1.21143L1.40236 1.29173Z" fill="url(#paint0_linear_119_815)"/>
<path d="M19.5309 19.7057L15.0195 15.1616V15.001V14.8404L19.532 10.2974L19.6336 10.3557L24.9797 13.4137C26.5061 14.2871 26.5061 15.716 24.9797 16.5905L19.6336 19.6485L19.5309 19.7057Z" fill="url(#paint1_linear_119_815)"/>
<g filter="url(#filter1_i_119_815)">
<path d="M19.6336 19.6474L15.0184 15.001L1.40234 28.7103C1.90494 29.2471 2.73641 29.3131 3.67278 28.7785L19.6336 19.6474Z" fill="url(#paint2_linear_119_815)"/>
</g>
<path d="M19.6336 10.3547L3.67278 1.22466C2.73641 0.688963 1.90494 0.756063 1.40234 1.29286L15.0195 15.0022L19.6336 10.3547Z" fill="url(#paint3_linear_119_815)"/>
</g>
<defs>
<filter id="filter0_ii_119_815" x="0.896484" y="0.85498" width="25.2285" height="28.2927" filterUnits="userSpaceOnUse" color-interpolation-filters="sRGB">
<feFlood flood-opacity="0" result="BackgroundImageFix"/>
<feBlend mode="normal" in="SourceGraphic" in2="BackgroundImageFix" result="shape"/>
<feColorMatrix in="SourceAlpha" type="matrix" values="0 0 0 0 0 0 0 0 0 0 0 0 0 0 0 0 0 0 127 0" result="hardAlpha"/>
<feOffset dy="-0.15"/>
<feComposite in2="hardAlpha" operator="arithmetic" k2="-1" k3="1"/>
<feColorMatrix type="matrix" values="0 0 0 0 0 0 0 0 0 0 0 0 0 0 0 0 0 0 0.12 0"/>
<feBlend mode="normal" in2="shape" result="effect1_innerShadow_119_815"/>
<feColorMatrix in="SourceAlpha" type="matrix" values="0 0 0 0 0 0 0 0 0 0 0 0 0 0 0 0 0 0 127 0" result="hardAlpha"/>
<feOffset dy="0.15"/>
<feComposite in2="hardAlpha" operator="arithmetic" k2="-1" k3="1"/>
<feColorMatrix type="matrix" values="0 0 0 0 1 0 0 0 0 1 0 0 0 0 1 0 0 0 0.25 0"/>
<feBlend mode="normal" in2="effect1_innerShadow_119_815" result="effect2_innerShadow_119_815"/>
</filter>
<filter id="filter1_i_119_815" x="1.40234" y="15.001" width="18.2305" height="14.1467" filterUnits="userSpaceOnUse" color-interpolation-filters="sRGB">
<feFlood flood-opacity="0" result="BackgroundImageFix"/>
<feBlend mode="normal" in="SourceGraphic" in2="BackgroundImageFix" result="shape"/>
<feColorMatrix in="SourceAlpha" type="matrix" values="0 0 0 0 0 0 0 0 0 0 0 0 0 0 0 0 0 0 127 0" result="hardAlpha"/>
<feOffset dy="-0.15"/>
<feComposite in2="hardAlpha" operator="arithmetic" k2="-1" k3="1"/>
<feColorMatrix type="matrix" values="0 0 0 0 0 0 0 0 0 0 0 0 0 0 0 0 0 0 0.08 0"/>
<feBlend mode="normal" in2="shape" result="effect1_innerShadow_119_815"/>
</filter>
<linearGradient id="paint0_linear_119_815" x1="13.8196" y1="2.57983" x2="-4.64018" y2="20.9155" gradientUnits="userSpaceOnUse">
<stop stop-color="#00A0FF"/>
<stop offset="0.0066" stop-color="#00A1FF"/>
<stop offset="0.2601" stop-color="#00BEFF"/>
<stop offset="0.5122" stop-color="#00D2FF"/>
<stop offset="0.7604" stop-color="#00DFFF"/>
<stop offset="1" stop-color="#00E3FF"/>
</linearGradient>
<linearGradient id="paint1_linear_119_815" x1="26.9666" y1="15.001" x2="0.530059" y2="15.001" gradientUnits="userSpaceOnUse">
<stop stop-color="#FFE000"/>
<stop offset="0.4087" stop-color="#FFBD00"/>
<stop offset="0.7754" stop-color="#FFA500"/>
<stop offset="1" stop-color="#FF9C00"/>
</linearGradient>
<linearGradient id="paint2_linear_119_815" x1="17.1272" y1="17.5243" x2="-7.90655" y2="42.3898" gradientUnits="userSpaceOnUse">
<stop stop-color="#FF3A44"/>
<stop offset="1" stop-color="#C31162"/>
</linearGradient>
<linearGradient id="paint3_linear_119_815" x1="-2.02691" y1="-6.80556" x2="9.15137" y2="4.29757" gradientUnits="userSpaceOnUse">
<stop stop-color="#32A071"/>
<stop offset="0.0685" stop-color="#2DA771"/>
<stop offset="0.4762" stop-color="#15CF74"/>
<stop offset="0.8009" stop-color="#06E775"/>
<stop offset="1" stop-color="#00F076"/>
</linearGradient>
</defs>
</svg>
