<svg xmlns="http://www.w3.org/2000/svg" width="27" height="30" fill="none"><g filter="url(#a)"><path fill="url(#b)" d="M1.402 1.292c-.318.339-.506.864-.506 1.545v24.328c0 .682.188 1.207.506 1.545l.081.08L15.02 15.162v-.321L1.482 1.21l-.08.08Z"/><path fill="url(#c)" d="m19.53 19.706-4.51-4.544v-.321l4.512-4.544.102.059 5.346 3.058c1.526.873 1.526 2.302 0 3.176l-5.346 3.058-.103.058Z"/><g filter="url(#d)"><path fill="url(#e)" d="m19.634 19.647-4.616-4.646-13.616 13.71c.503.536 1.334.602 2.27.068l15.962-9.132Z"/></g><path fill="url(#f)" d="M19.634 10.355 3.673 1.225c-.937-.536-1.768-.469-2.27.068l13.617 13.71 4.614-4.648Z"/></g><defs><linearGradient id="b" x1="13.82" x2="-4.64" y1="2.58" y2="20.916" gradientUnits="userSpaceOnUse"><stop stop-color="#00A0FF"/><stop offset=".007" stop-color="#00A1FF"/><stop offset=".26" stop-color="#00BEFF"/><stop offset=".512" stop-color="#00D2FF"/><stop offset=".76" stop-color="#00DFFF"/><stop offset="1" stop-color="#00E3FF"/></linearGradient><linearGradient id="c" x1="26.967" x2=".53" y1="15.001" y2="15.001" gradientUnits="userSpaceOnUse"><stop stop-color="#FFE000"/><stop offset=".409" stop-color="#FFBD00"/><stop offset=".775" stop-color="orange"/><stop offset="1" stop-color="#FF9C00"/></linearGradient><linearGradient id="e" x1="17.127" x2="-7.907" y1="17.524" y2="42.39" gradientUnits="userSpaceOnUse"><stop stop-color="#FF3A44"/><stop offset="1" stop-color="#C31162"/></linearGradient><linearGradient id="f" x1="-2.027" x2="9.151" y1="-6.806" y2="4.298" gradientUnits="userSpaceOnUse"><stop stop-color="#32A071"/><stop offset=".069" stop-color="#2DA771"/><stop offset=".476" stop-color="#15CF74"/><stop offset=".801" stop-color="#06E775"/><stop offset="1" stop-color="#00F076"/></linearGradient><filter id="a" width="25.229" height="28.293" x=".896" y=".855" color-interpolation-filters="sRGB" filterUnits="userSpaceOnUse"><feFlood flood-opacity="0" result="BackgroundImageFix"/><feBlend in="SourceGraphic" in2="BackgroundImageFix" result="shape"/><feColorMatrix in="SourceAlpha" result="hardAlpha" values="0 0 0 0 0 0 0 0 0 0 0 0 0 0 0 0 0 0 127 0"/><feOffset dy="-.15"/><feComposite in2="hardAlpha" k2="-1" k3="1" operator="arithmetic"/><feColorMatrix values="0 0 0 0 0 0 0 0 0 0 0 0 0 0 0 0 0 0 0.12 0"/><feBlend in2="shape" result="effect1_innerShadow_119_815"/><feColorMatrix in="SourceAlpha" result="hardAlpha" values="0 0 0 0 0 0 0 0 0 0 0 0 0 0 0 0 0 0 127 0"/><feOffset dy=".15"/><feComposite in2="hardAlpha" k2="-1" k3="1" operator="arithmetic"/><feColorMatrix values="0 0 0 0 1 0 0 0 0 1 0 0 0 0 1 0 0 0 0.25 0"/><feBlend in2="effect1_innerShadow_119_815" result="effect2_innerShadow_119_815"/></filter><filter id="d" width="18.23" height="14.147" x="1.402" y="15.001" color-interpolation-filters="sRGB" filterUnits="userSpaceOnUse"><feFlood flood-opacity="0" result="BackgroundImageFix"/><feBlend in="SourceGraphic" in2="BackgroundImageFix" result="shape"/><feColorMatrix in="SourceAlpha" result="hardAlpha" values="0 0 0 0 0 0 0 0 0 0 0 0 0 0 0 0 0 0 127 0"/><feOffset dy="-.15"/><feComposite in2="hardAlpha" k2="-1" k3="1" operator="arithmetic"/><feColorMatrix values="0 0 0 0 0 0 0 0 0 0 0 0 0 0 0 0 0 0 0.08 0"/><feBlend in2="shape" result="effect1_innerShadow_119_815"/></filter></defs></svg>