<svg aria-hidden="true" style="position: absolute; width: 0; height: 0; overflow: hidden;" version="1.1" xmlns="http://www.w3.org/2000/svg" xmlns:xlink="http://www.w3.org/1999/xlink">
<defs>
<symbol id="icon-chevron" viewBox="0 0 32 32">
<path d="M32 16l-12.522-14.47c-0.69-0.797-1.933-0.776-2.595 0.044-0.512 0.634-0.499 1.542 0.030 2.161l10.472 12.265-10.472 12.265c-0.529 0.619-0.541 1.528-0.030 2.161 0.662 0.82 1.905 0.841 2.595 0.044l12.522-14.47z"></path>
</symbol>
<symbol id="icon-close-mobile-menu" viewBox="0 0 32 32">
<path d="M7.5 32c-0.398 0-0.779-0.158-1.061-0.439s-0.439-0.663-0.439-1.061v-29c0-0.398 0.158-0.779 0.439-1.061s0.663-0.439 1.061-0.439c0.398 0 0.779 0.158 1.061 0.439s0.439 0.663 0.439 1.061v29c0 0.398-0.158 0.779-0.439 1.061s-0.663 0.439-1.061 0.439zM16 32c-0.398 0-0.779-0.158-1.061-0.439s-0.439-0.663-0.439-1.061v-29c0-0.398 0.158-0.779 0.439-1.061s0.663-0.439 1.061-0.439c0.398 0 0.779 0.158 1.061 0.439s0.439 0.663 0.439 1.061v29c0 0.398-0.158 0.779-0.439 1.061s-0.663 0.439-1.061 0.439zM23 30.5c0 0.398 0.158 0.779 0.439 1.061s0.663 0.439 1.061 0.439c0.398 0 0.779-0.158 1.061-0.439s0.439-0.663 0.439-1.061v-29c0-0.398-0.158-0.779-0.439-1.061s-0.663-0.439-1.061-0.439c-0.398 0-0.779 0.158-1.061 0.439s-0.439 0.663-0.439 1.061v29z"></path>
</symbol>
<symbol id="icon-open-mobile-menu" viewBox="0 0 32 32">
<path d="M0 7.5c0-0.398 0.158-0.779 0.439-1.061s0.663-0.439 1.061-0.439h29c0.398 0 0.779 0.158 1.061 0.439s0.439 0.663 0.439 1.061c0 0.398-0.158 0.779-0.439 1.061s-0.663 0.439-1.061 0.439h-29c-0.398 0-0.779-0.158-1.061-0.439s-0.439-0.663-0.439-1.061zM0 16c0-0.398 0.158-0.779 0.439-1.061s0.663-0.439 1.061-0.439h29c0.398 0 0.779 0.158 1.061 0.439s0.439 0.663 0.439 1.061c0 0.398-0.158 0.779-0.439 1.061s-0.663 0.439-1.061 0.439h-29c-0.398 0-0.779-0.158-1.061-0.439s-0.439-0.663-0.439-1.061zM1.5 23c-0.398 0-0.779 0.158-1.061 0.439s-0.439 0.663-0.439 1.061c0 0.398 0.158 0.779 0.439 1.061s0.663 0.439 1.061 0.439h29c0.398 0 0.779-0.158 1.061-0.439s0.439-0.663 0.439-1.061c0-0.398-0.158-0.779-0.439-1.061s-0.663-0.439-1.061-0.439h-29z"></path>
</symbol>
<symbol id="icon-google-play-logo" viewBox="0 0 29 32">
<path d="M1.496 1.378c-0.339 0.361-0.54 0.922-0.54 1.649v25.949c0 0.727 0.2 1.287 0.54 1.649l0.086 0.084 14.439-14.536v-0.343l-14.439-14.538-0.086 0.086z"></path>
<path d="M20.833 21.019l-4.812-4.847v-0.343l4.813-4.846 0.108 0.062 5.703 3.262c1.628 0.932 1.628 2.456 0 3.389l-5.812 3.323z"></path>
<path d="M20.942 20.957l-4.923-4.956-14.524 14.623c0.536 0.573 1.423 0.643 2.422 0.073l17.025-9.74z"></path>
<path d="M20.942 11.045l-17.025-9.739c-0.999-0.571-1.886-0.5-2.422 0.073l14.525 14.623 4.922-4.957z"></path>
</symbol>
</defs>
</svg>
