<svg aria-hidden="true" style="position: absolute; width: 0; height: 0; overflow: hidden;" version="1.1" xmlns="http://www.w3.org/2000/svg" xmlns:xlink="http://www.w3.org/1999/xlink">
<defs>
<symbol id="icon-chevron" viewBox="0 0 32 32">
<path d="M32 16l-12.522-14.47c-0.69-0.797-1.933-0.776-2.595 0.044-0.512 0.634-0.499 1.542 0.030 2.161l10.472 12.265-10.472 12.265c-0.529 0.619-0.541 1.528-0.030 2.161 0.662 0.82 1.905 0.841 2.595 0.044l12.522-14.47z"></path>
</symbol>
<symbol id="icon-open-mobile-menu" viewBox="0 0 32 32">
<path d="M0 7.5c0-0.398 0.158-0.779 0.439-1.061s0.663-0.439 1.061-0.439h29c0.398 0 0.779 0.158 1.061 0.439s0.439 0.663 0.439 1.061c0 0.398-0.158 0.779-0.439 1.061s-0.663 0.439-1.061 0.439h-29c-0.398 0-0.779-0.158-1.061-0.439s-0.439-0.663-0.439-1.061zM0 16c0-0.398 0.158-0.779 0.439-1.061s0.663-0.439 1.061-0.439h29c0.398 0 0.779 0.158 1.061 0.439s0.439 0.663 0.439 1.061c0 0.398-0.158 0.779-0.439 1.061s-0.663 0.439-1.061 0.439h-29c-0.398 0-0.779-0.158-1.061-0.439s-0.439-0.663-0.439-1.061zM1.5 23c-0.398 0-0.779 0.158-1.061 0.439s-0.439 0.663-0.439 1.061c0 0.398 0.158 0.779 0.439 1.061s0.663 0.439 1.061 0.439h29c0.398 0 0.779-0.158 1.061-0.439s0.439-0.663 0.439-1.061c0-0.398-0.158-0.779-0.439-1.061s-0.663-0.439-1.061-0.439h-29z"></path>
</symbol>
</defs>
</svg>
