<!-- Generated by IcoMoon.io -->
<svg version="1.1" xmlns="http://www.w3.org/2000/svg" width="32" height="32" viewBox="0 0 32 32">
<title>telegram</title>
<path d="M15.943 26.288c5.713 0 10.344-4.631 10.344-10.344s-4.631-10.344-10.344-10.344c-5.713 0-10.344 4.631-10.344 10.344s4.631 10.344 10.344 10.344z"></path>
<path d="M10.033 15.718c0 0 5.124-2.18 6.901-2.947 0.681-0.307 2.991-1.29 2.991-1.29s1.066-0.43 0.977 0.614c-0.030 0.43-0.267 1.934-0.503 3.562-0.355 2.303-0.741 4.82-0.741 4.82s-0.059 0.706-0.563 0.829c-0.503 0.123-1.333-0.43-1.481-0.553-0.119-0.092-2.221-1.474-2.991-2.149-0.207-0.184-0.444-0.553 0.030-0.982 1.066-1.013 2.34-2.272 3.11-3.070 0.355-0.368 0.711-1.228-0.77-0.184-2.103 1.504-4.176 2.917-4.176 2.917s-0.474 0.307-1.362 0.031c-0.889-0.276-1.925-0.645-1.925-0.645s-0.711-0.461 0.504-0.952z"></path>
</svg>
