<svg width="0" height="0" class="hidden">
  <symbol xmlns="http://www.w3.org/2000/svg" viewBox="0 0 44 8" id="get-in-on">
    <path d="M6.98412 4.26726C6.98412 5.18906 6.71223 5.92276 6.16738 6.47056C5.54906 7.12176 4.74219 7.44736 3.75114 7.44736C2.80175 7.44736 1.99378 7.11736 1.33052 6.45736C0.666163 5.79626 0.333984 4.97786 0.333984 4.00106C0.333984 3.02316 0.666163 2.20476 1.33052 1.54476C1.99378 0.883662 2.80175 0.553663 3.75114 0.553663C4.22255 0.553663 4.67312 0.646062 5.10068 0.829762C5.52933 1.01456 5.87247 1.25986 6.12901 1.56676L5.55126 2.14756C5.11603 1.62506 4.51635 1.36436 3.75004 1.36436C3.05718 1.36436 2.4586 1.60856 1.95321 2.09696C1.44782 2.58536 1.19567 3.22006 1.19567 3.99996C1.19567 4.77986 1.44782 5.41456 1.95321 5.90296C2.4586 6.39136 3.05718 6.63556 3.75004 6.63556C4.48456 6.63556 5.09739 6.39026 5.58744 5.89856C5.90536 5.57846 6.08954 5.13296 6.13887 4.56206H3.75004V3.76896H6.93698C6.96986 3.94166 6.98412 4.10776 6.98412 4.26726Z" ></path>
    <path d="M12.0381 1.51072H9.04307V3.60292H11.7443V4.39602H9.04307V6.48822H12.0381V7.30002H8.19782V0.700025H12.0381V1.51072Z" ></path>
    <path d="M15.6021 7.30002H14.7568V1.51072H12.9194V0.700025H17.4395V1.51072H15.6021V7.30002Z" ></path>
    <path d="M20.7097 7.30002V0.700025H21.5549V7.30002H20.7097Z" ></path>
    <path d="M25.3033 7.30002H24.4581V1.51072H22.6207V0.700025H27.1407V1.51072H25.3033V7.30002Z" ></path>
    <path d="M35.6971 6.44751C35.0503 7.11411 34.2467 7.44741 33.2852 7.44741C32.3238 7.44741 31.5202 7.11411 30.8745 6.44751C30.2277 5.78091 29.9053 4.96471 29.9053 4.00001C29.9053 3.03531 30.2277 2.21911 30.8745 1.55251C31.5202 0.885913 32.3238 0.551514 33.2852 0.551514C34.2412 0.551514 35.0437 0.887013 35.6927 1.55691C36.3417 2.22681 36.6662 3.04081 36.6662 4.00001C36.6662 4.96471 36.3428 5.78091 35.6971 6.44751ZM31.4983 5.89421C31.985 6.38921 32.5803 6.63561 33.2852 6.63561C33.9901 6.63561 34.5865 6.38811 35.0722 5.89421C35.5589 5.39921 35.8034 4.76781 35.8034 4.00001C35.8034 3.23221 35.5589 2.60081 35.0722 2.10581C34.5865 1.61081 33.9901 1.36441 33.2852 1.36441C32.5803 1.36441 31.985 1.61191 31.4983 2.10581C31.0126 2.60081 30.7681 3.23221 30.7681 4.00001C30.7681 4.76781 31.0126 5.39921 31.4983 5.89421Z" ></path>
    <path d="M37.8524 7.30002V0.700025H38.8807L42.0775 5.83372H42.1137L42.0775 4.56212V0.700025H42.9228V7.30002H42.0403L38.6955 1.91663H38.6593L38.6955 3.18822V7.30002H37.8524Z" ></path>
    <path d="M6.98412 4.26726C6.98412 5.18906 6.71223 5.92276 6.16738 6.47056C5.54906 7.12176 4.74219 7.44736 3.75114 7.44736C2.80175 7.44736 1.99378 7.11736 1.33052 6.45736C0.666163 5.79626 0.333984 4.97786 0.333984 4.00106C0.333984 3.02316 0.666163 2.20476 1.33052 1.54476C1.99378 0.883662 2.80175 0.553663 3.75114 0.553663C4.22255 0.553663 4.67312 0.646062 5.10068 0.829762C5.52933 1.01456 5.87247 1.25986 6.12901 1.56676L5.55126 2.14756C5.11603 1.62506 4.51635 1.36436 3.75004 1.36436C3.05718 1.36436 2.4586 1.60856 1.95321 2.09696C1.44782 2.58536 1.19567 3.22006 1.19567 3.99996C1.19567 4.77986 1.44782 5.41456 1.95321 5.90296C2.4586 6.39136 3.05718 6.63556 3.75004 6.63556C4.48456 6.63556 5.09739 6.39026 5.58744 5.89856C5.90536 5.57846 6.08954 5.13296 6.13887 4.56206H3.75004V3.76896H6.93698C6.96986 3.94166 6.98412 4.10776 6.98412 4.26726Z" stroke-miterlimit="10"></path>
    <path d="M12.0381 1.51072H9.04307V3.60292H11.7443V4.39602H9.04307V6.48822H12.0381V7.30002H8.19782V0.700025H12.0381V1.51072Z" stroke-miterlimit="10"></path>
    <path d="M15.6021 7.30002H14.7568V1.51072H12.9194V0.700025H17.4395V1.51072H15.6021V7.30002Z" stroke-miterlimit="10"></path>
    <path d="M20.7097 7.30002V0.700025H21.5549V7.30002H20.7097Z" stroke-miterlimit="10"></path>
    <path d="M25.3033 7.30002H24.4581V1.51072H22.6207V0.700025H27.1407V1.51072H25.3033V7.30002Z" stroke-miterlimit="10"></path>
    <path d="M35.6971 6.44751C35.0503 7.11411 34.2467 7.44741 33.2852 7.44741C32.3238 7.44741 31.5202 7.11411 30.8745 6.44751C30.2277 5.78091 29.9053 4.96471 29.9053 4.00001C29.9053 3.03531 30.2277 2.21911 30.8745 1.55251C31.5202 0.885913 32.3238 0.551514 33.2852 0.551514C34.2412 0.551514 35.0437 0.887013 35.6927 1.55691C36.3417 2.22681 36.6662 3.04081 36.6662 4.00001C36.6662 4.96471 36.3428 5.78091 35.6971 6.44751ZM31.4983 5.89421C31.985 6.38921 32.5803 6.63561 33.2852 6.63561C33.9901 6.63561 34.5865 6.38811 35.0722 5.89421C35.5589 5.39921 35.8034 4.76781 35.8034 4.00001C35.8034 3.23221 35.5589 2.60081 35.0722 2.10581C34.5865 1.61081 33.9901 1.36441 33.2852 1.36441C32.5803 1.36441 31.985 1.61191 31.4983 2.10581C31.0126 2.60081 30.7681 3.23221 30.7681 4.00001C30.7681 4.76781 31.0126 5.39921 31.4983 5.89421Z" stroke-miterlimit="10"></path>
    <path d="M37.8524 7.30002V0.700025H38.8807L42.0775 5.83372H42.1137L42.0775 4.56212V0.700025H42.9228V7.30002H42.0403L38.6955 1.91663H38.6593L38.6955 3.18822V7.30002H37.8524Z" stroke-miterlimit="10"></path>
  </symbol>
  <symbol xmlns="http://www.w3.org/2000/svg" viewBox="0 0 93 20" id="google-play-text">
    <path d="M29.6972 5.92635C27.1187 5.92635 25.0171 7.89426 25.0171 10.6047C25.0171 13.2986 27.1187 15.283 29.6972 15.283C32.2768 15.283 34.3784 13.2986 34.3784 10.6047C34.3773 7.89426 32.2757 5.92635 29.6972 5.92635ZM29.6972 13.4416C28.2841 13.4416 27.0661 12.2723 27.0661 10.6058C27.0661 8.92165 28.2852 7.76995 29.6972 7.76995C31.1103 7.76995 32.3283 8.92165 32.3283 10.6058C32.3283 12.2712 31.1103 13.4416 29.6972 13.4416ZM19.4863 5.92635C16.9078 5.92635 14.8062 7.89426 14.8062 10.6047C14.8062 13.2986 16.9078 15.283 19.4863 15.283C22.0659 15.283 24.1675 13.2986 24.1675 10.6047C24.1675 7.89426 22.0659 5.92635 19.4863 5.92635ZM19.4863 13.4416C18.0732 13.4416 16.8552 12.2723 16.8552 10.6058C16.8552 8.92165 18.0743 7.76995 19.4863 7.76995C20.8994 7.76995 22.1174 8.92165 22.1174 10.6058C22.1185 12.2712 20.8994 13.4416 19.4863 13.4416ZM7.34152 7.36295V9.34735H12.0753C11.9339 10.4639 11.5634 11.279 10.9977 11.8455C10.3092 12.5363 9.23153 13.2986 7.34152 13.2986C4.42756 13.2986 2.14946 10.9413 2.14946 8.01745C2.14946 5.09365 4.42756 2.73635 7.34152 2.73635C8.91361 2.73635 10.0614 3.35675 10.9089 4.15425L12.3045 2.75395C11.1205 1.61985 9.54946 0.751954 7.34152 0.751954C3.3499 0.751954 -0.00585958 4.01235 -0.00585958 8.01745C-0.00585958 12.0226 3.3499 15.283 7.34152 15.283C9.49574 15.283 11.1216 14.5735 12.3922 13.2447C13.6989 11.9335 14.1057 10.0899 14.1057 8.60155C14.1057 8.14175 14.0706 7.71605 13.9993 7.36185H7.34152V7.36295ZM57.0125 8.90405C56.6244 7.85905 55.4404 5.92635 53.0209 5.92635C50.6189 5.92635 48.6226 7.82275 48.6226 10.6047C48.6226 13.2271 50.6014 15.283 53.25 15.283C55.3867 15.283 56.6233 13.9718 57.1364 13.2095L55.5468 12.1458C55.0173 12.9257 54.2926 13.4394 53.25 13.4394C52.2085 13.4394 51.4663 12.9609 50.9895 12.0215L57.2241 9.43425L57.0125 8.90405ZM50.654 10.4639C50.6014 8.65545 52.0496 7.73475 53.0922 7.73475C53.9045 7.73475 54.593 8.14285 54.8232 8.72695L50.654 10.4639ZM45.5858 15.0003H47.6337V1.24915H45.5858V15.0003ZM42.229 6.97245H42.1588C41.6994 6.42245 40.8158 5.92635 39.7042 5.92635C37.3724 5.92635 35.2357 7.98225 35.2357 10.6234C35.2357 13.2458 37.3724 15.2841 39.7042 15.2841C40.8169 15.2841 41.6994 14.788 42.1588 14.2215H42.229V14.8947C42.229 16.6844 41.2752 17.6414 39.7393 17.6414C38.4851 17.6414 37.7078 16.7383 37.3899 15.976L35.6062 16.7207C36.1182 17.9604 37.4776 19.485 39.7393 19.485C42.1413 19.485 44.1727 18.0671 44.1727 14.6109V6.21125H42.2301V6.97245H42.229ZM39.8807 13.4416C38.4676 13.4416 37.2847 12.2536 37.2847 10.6234C37.2847 8.97445 38.4676 7.76995 39.8807 7.76995C41.2752 7.76995 42.3704 8.97445 42.3704 10.6234C42.3704 12.2536 41.2752 13.4416 39.8807 13.4416ZM66.6095 1.24915H61.7079V15.0003H63.7525V9.79065H66.6084C68.8755 9.79065 71.1054 8.14395 71.1054 5.52045C71.1054 2.89695 68.8766 1.24915 66.6095 1.24915ZM66.6621 7.87665H63.7525V3.16315H66.6621C68.1914 3.16315 69.0597 4.43365 69.0597 5.52045C69.0597 6.58525 68.1914 7.87665 66.6621 7.87665ZM79.3046 5.90215C77.8235 5.90215 76.2898 6.55665 75.655 8.00756L77.4705 8.76765C77.8586 8.00755 78.5821 7.75895 79.3397 7.75895C80.3976 7.75895 81.4731 8.39585 81.4906 9.52775V9.66965C81.1201 9.45735 80.3263 9.13945 79.3572 9.13945C77.4003 9.13945 75.4073 10.2186 75.4073 12.2349C75.4073 14.0752 77.0122 15.2599 78.8102 15.2599C80.1849 15.2599 80.9436 14.6406 81.4194 13.9146H81.4895V14.9761H83.465V9.70376C83.4661 7.26396 81.6485 5.90215 79.3046 5.90215ZM79.0568 13.4383C78.3881 13.4383 77.453 13.1017 77.453 12.2701C77.453 11.2086 78.6172 10.8016 79.6225 10.8016C80.5204 10.8016 80.9447 10.9963 81.4906 11.2614C81.3316 12.5363 80.2386 13.4383 79.0568 13.4383ZM90.6589 6.20245L88.314 12.1645H88.2438L85.81 6.20245H83.6065L87.2561 14.535L85.1753 19.1704H87.3087L92.9337 6.20245H90.6589ZM72.2346 15.0003H74.2792V1.24915H72.2346V15.0003Z" ></path>
  </symbol>
</svg>